<svg xmlns="http://www.w3.org/2000/svg" viewBox="0 0 595 842" width="595" height="842"><rect width="595" height="842" fill="#FFFFFF"/><rect x="0" y="0" width="595" height="6" fill="#FF6A00"/><g transform="translate(48 54) scale(1.7)"><path d="M0 0H13V9H8V24H0Z" fill="#131C4A"/><path d="M24 24H11V15H16V0H24Z" fill="#FF6A00"/></g><text x="94" y="80" font-family="Archivo, Arial, sans-serif" font-weight="800" font-size="24" letter-spacing="-0.03em"><tspan fill="#131C4A">TAK</tspan><tspan fill="#FF6A00">TO</tspan></text><text x="547" y="74" font-family="IBM Plex Sans, Arial, sans-serif" font-size="11" fill="#6E7688" font-weight="400" text-anchor="end" letter-spacing="0">CRM conversacional multiempresa</text><line x1="48" y1="104" x2="547" y2="104" stroke="#E2E5EC"/><text x="48" y="150" font-family="IBM Plex Sans, Arial, sans-serif" font-size="12" fill="#3B4252" font-weight="400" text-anchor="start" letter-spacing="0">Ciudad, 30 de julio de 2026</text><text x="48" y="196" font-family="IBM Plex Sans, Arial, sans-serif" font-size="13" fill="#171B24" font-weight="600" text-anchor="start" letter-spacing="0">Estimado/a cliente,</text><rect x="48" y="228" width="520" height="7" rx="3" fill="#EFF1F5" /><rect x="48" y="250" width="510" height="7" rx="3" fill="#EFF1F5" /><rect x="48" y="272" width="498" height="7" rx="3" fill="#EFF1F5" /><rect x="48" y="294" width="516" height="7" rx="3" fill="#EFF1F5" /><rect x="48" y="316" width="300" height="7" rx="3" fill="#EFF1F5" /><text x="48" y="392" font-family="IBM Plex Sans, Arial, sans-serif" font-size="12" fill="#3B4252" font-weight="400" text-anchor="start" letter-spacing="0">Atentamente,</text><text x="48" y="432" font-family="Archivo, Arial, sans-serif" font-weight="800" font-size="20" letter-spacing="-0.03em"><tspan fill="#131C4A">TAK</tspan><tspan fill="#FF6A00">TO</tspan></text><text x="48" y="452" font-family="IBM Plex Sans, Arial, sans-serif" font-size="11" fill="#6E7688" font-weight="400" text-anchor="start" letter-spacing="0">Equipo comercial</text><line x1="48" y1="770" x2="547" y2="770" stroke="#E2E5EC"/><text x="48" y="792" font-family="IBM Plex Sans, Arial, sans-serif" font-size="10" fill="#6E7688" font-weight="400" text-anchor="start" letter-spacing="0">takto.app</text><text x="297.5" y="792" font-family="IBM Plex Sans, Arial, sans-serif" font-size="10" fill="#6E7688" font-weight="400" text-anchor="middle" letter-spacing="0">hola@takto.app</text><text x="547" y="792" font-family="IBM Plex Sans, Arial, sans-serif" font-size="10" fill="#C24A00" font-weight="600" text-anchor="end" letter-spacing="0">Vender ordenado.</text></svg>